<?xml version="1.0" encoding="UTF-8"?>
<svg xmlns="http://www.w3.org/2000/svg" xmlns:xlink="http://www.w3.org/1999/xlink" width="42px" height="42px" viewBox="0 0 42 42" version="1.1">
<g id="surface1">
<path style=" stroke:none;fill-rule:nonzero;fill:rgb(70.588237%,0%,43.137255%);fill-opacity:1;" d="M 36.0625 1.828125 L 36.0625 28.304688 C 36.0625 29.0625 36.675781 29.675781 37.433594 29.675781 C 38.191406 29.675781 38.804688 29.0625 38.804688 28.304688 L 38.804688 1.828125 Z M 36.0625 1.828125 "/>
<path style=" stroke:none;fill-rule:nonzero;fill:rgb(77.254903%,4.705882%,43.921569%);fill-opacity:1;" d="M 14.152344 7.308594 L 14.152344 36.523438 C 14.152344 37.277344 14.765625 37.890625 15.523438 37.890625 C 16.277344 37.890625 16.890625 37.277344 16.890625 36.523438 L 16.890625 7.308594 C 16.890625 7.308594 14.152344 7.308594 14.152344 7.308594 Z M 14.152344 7.308594 "/>
<path style=" stroke:none;fill-rule:nonzero;fill:rgb(90.54902%,18.82353%,40.000001%);fill-opacity:1;" d="M 31.957031 22.828125 C 29.710938 22.828125 27.71875 23.695312 26.476562 25.027344 C 25.609375 25.941406 25.109375 27.074219 25.109375 28.304688 C 25.109375 29.539062 25.609375 30.671875 26.476562 31.582031 C 27.71875 32.914062 29.710938 33.78125 31.957031 33.78125 C 35.734375 33.78125 38.804688 31.328125 38.804688 28.304688 C 38.804688 25.285156 35.734375 22.828125 31.957031 22.828125 Z M 31.957031 22.828125 "/>
<path style=" stroke:none;fill-rule:nonzero;fill:rgb(90.54902%,18.82353%,40.000001%);fill-opacity:1;" d="M 38.273438 0.296875 C 37.945312 0.03125 37.515625 -0.0625 37.105469 0.0390625 L 26.476562 2.695312 L 15.195312 5.519531 C 14.582031 5.671875 14.152344 6.21875 14.152344 6.851562 L 14.152344 16.820312 L 26.476562 13.742188 L 38.804688 10.65625 L 38.804688 1.371094 C 38.804688 0.953125 38.609375 0.550781 38.273438 0.296875 Z M 38.273438 0.296875 "/>
<path style=" stroke:none;fill-rule:nonzero;fill:rgb(90.54902%,25.82353%,45.000001%);fill-opacity:1;" d="M 38.804688 1.371094 L 38.804688 10.65625 L 26.476562 13.742188 L 26.476562 2.695312 L 37.105469 0.0390625 C 37.515625 -0.0625 37.945312 0.03125 38.273438 0.296875 C 38.609375 0.550781 38.804688 0.953125 38.804688 1.371094 Z M 38.804688 1.371094 "/>
<path style=" stroke:none;fill-rule:nonzero;fill:rgb(88.627452%,30.980393%,47.058824%);fill-opacity:1;" d="M 10.042969 42 C 6.269531 42 3.195312 39.542969 3.195312 36.523438 C 3.195312 33.5 6.269531 31.042969 10.042969 31.042969 C 13.820312 31.042969 16.890625 33.5 16.890625 36.523438 C 16.890625 39.542969 13.820312 42 10.042969 42 Z M 10.042969 42 "/>
</g>
</svg>
