<?xml version="1.0" encoding="UTF-8"?>
<svg xmlns="http://www.w3.org/2000/svg" xmlns:xlink="http://www.w3.org/1999/xlink" width="43px" height="43px" viewBox="0 0 43 43" version="1.1">
<g id="surface1">
<path style=" stroke:none;fill-rule:evenodd;fill:rgb(70.588237%,0%,43.137255%);fill-opacity:1;" d="M 16.125 30.90625 C 16.125 30.164062 16.726562 29.5625 17.46875 29.5625 C 18.210938 29.5625 18.8125 30.164062 18.8125 30.90625 C 18.8125 31.648438 18.210938 32.25 17.46875 32.25 C 16.726562 32.25 16.125 31.648438 16.125 30.90625 Z M 29.339844 41.5 C 28.980469 41.605469 28.609375 41.675781 28.21875 41.675781 C 25.992188 41.675781 24.1875 39.875 24.1875 37.644531 L 24.1875 32.757812 C 24.1875 31.070312 25.269531 29.640625 26.773438 29.113281 C 29.660156 28.140625 32.25 25.707031 32.25 22.84375 L 32.25 20.15625 C 32.25 18.882812 31.730469 17.695312 30.90625 16.683594 L 30.90625 13.648438 C 30.90625 12.164062 29.703125 11.65625 28.21875 12.515625 L 26.160156 13.703125 C 25.5 13.535156 24.835938 13.4375 24.1875 13.4375 L 18.8125 13.4375 C 18.164062 13.4375 17.5 13.535156 16.839844 13.703125 L 14.78125 12.515625 C 13.296875 11.65625 12.09375 12.164062 12.09375 13.648438 L 12.09375 16.683594 C 11.269531 17.695312 10.75 18.882812 10.75 20.15625 L 10.75 22.84375 C 10.75 24.800781 11.964844 26.554688 13.652344 27.785156 C 14.003906 28.027344 14.234375 28.433594 14.234375 28.890625 C 14.234375 29.632812 13.632812 30.234375 12.890625 30.234375 C 12.511719 30.234375 12.171875 30.074219 11.925781 29.824219 C 9.660156 28.105469 8.0625 25.617188 8.0625 22.84375 L 8.0625 20.15625 C 8.0625 18.601562 8.566406 17.132812 9.40625 15.839844 L 9.40625 11.839844 C 9.40625 8.875 11.8125 7.855469 14.78125 9.574219 L 17.085938 10.90625 C 17.664062 10.808594 18.238281 10.75 18.8125 10.75 L 24.1875 10.75 C 24.761719 10.75 25.335938 10.808594 25.914062 10.90625 L 28.21875 9.574219 C 31.1875 7.855469 33.59375 8.875 33.59375 11.839844 L 33.59375 15.839844 C 34.433594 17.132812 34.9375 18.601562 34.9375 20.15625 L 34.9375 22.84375 C 34.9375 26.84375 31.640625 30.246094 27.753906 31.609375 C 27.75 31.613281 27.746094 31.625 27.738281 31.625 C 27.234375 31.820312 26.875 32.308594 26.875 32.878906 L 26.875 37.644531 C 26.875 38.390625 27.476562 38.988281 28.21875 38.988281 C 28.332031 38.988281 28.433594 38.957031 28.539062 38.933594 C 35.4375 36.148438 40.3125 29.398438 40.3125 21.5 C 40.3125 11.109375 31.890625 2.6875 21.5 2.6875 C 11.109375 2.6875 2.6875 11.109375 2.6875 21.5 C 2.6875 29.679688 7.914062 36.621094 15.210938 39.210938 C 15.25 39.214844 15.28125 39.230469 15.320312 39.230469 C 15.765625 39.230469 16.125 38.871094 16.125 38.429688 C 16.125 37.984375 15.765625 37.625 15.320312 37.625 C 15.3125 37.625 15.3125 37.617188 15.304688 37.613281 C 10.839844 37.496094 10.835938 32.25 9.40625 32.25 C 8.664062 32.25 8.0625 31.648438 8.0625 30.90625 C 8.0625 30.164062 8.664062 29.5625 9.40625 29.5625 C 9.546875 29.5625 9.757812 29.5625 10.078125 29.5625 C 12.765625 29.5625 12.382812 34.9375 16.125 34.9375 C 17.609375 34.9375 18.8125 36.140625 18.8125 37.625 L 18.8125 39.976562 C 18.8125 41.273438 17.761719 42.328125 16.460938 42.328125 C 16.320312 42.328125 16.183594 42.300781 16.050781 42.273438 C 6.820312 39.859375 0 31.488281 0 21.5 C 0 9.625 9.625 0 21.5 0 C 33.375 0 43 9.625 43 21.5 C 43 30.605469 37.332031 38.367188 29.339844 41.5 Z M 29.339844 41.5 "/>
</g>
</svg>
